<?xml version="1.0" standalone="no"?>
<!DOCTYPE svg PUBLIC "-//W3C//DTD SVG 20010904//EN"
 "http://www.w3.org/TR/2001/REC-SVG-20010904/DTD/svg10.dtd">
<svg version="1.0" xmlns="http://www.w3.org/2000/svg"
 width="296.000000pt" height="210.000000pt" viewBox="0 0 296.000000 210.000000"
 preserveAspectRatio="xMidYMid meet">

<g transform="translate(0.000000,210.000000) scale(0.100000,-0.100000)"
fill="#000000" stroke="none">
<path d="M1083 1870 c-35 -21 -42 -37 -45 -120 l-3 -55 -235 -5 c-256 -5 -266
-8 -307 -68 -17 -25 -18 -62 -21 -517 l-3 -490 23 -44 c43 -83 25 -81 580 -81
269 0 488 -2 488 -4 0 -3 -4 -16 -9 -29 -15 -39 5 -95 42 -118 55 -34 89 -21
182 71 l80 80 186 0 c176 0 188 1 219 23 63 42 73 65 78 182 l5 105 43 0 c109
0 229 84 281 195 23 50 27 74 28 140 0 71 -4 88 -33 147 -53 109 -149 176
-273 193 l-46 6 -7 56 c-4 31 -16 71 -26 89 -37 59 -62 64 -314 64 l-226 0 0
60 c0 32 -5 71 -12 85 -24 52 -42 55 -355 55 -269 0 -290 -1 -320 -20z m615
-52 c7 -7 12 -38 12 -70 l0 -58 -307 2 -308 3 -3 51 c-5 86 -14 84 312 84 206
0 285 -3 294 -12z m553 -216 c24 -27 29 -41 29 -82 0 -46 -2 -51 -27 -61 -56
-20 -95 -45 -140 -91 l-47 -48 -293 0 -292 0 -3 53 -3 52 -65 3 c-75 4 -90 -8
-90 -70 l0 -38 -366 0 -366 0 -29 29 c-28 28 -29 33 -29 120 0 50 5 102 12
117 25 55 7 54 876 51 l804 -2 29 -33z m227 -211 c60 -31 95 -64 127 -123 26
-46 30 -63 30 -133 0 -86 -16 -129 -70 -193 -33 -40 -118 -81 -181 -88 -207
-25 -369 199 -284 394 28 65 105 136 169 157 59 19 157 12 209 -14z m-1048
-101 c0 -79 0 -80 -25 -80 -25 0 -25 1 -25 80 0 79 0 80 25 80 25 0 25 -1 25
-80z m-480 -30 l375 -5 -3 -32 c-2 -17 2 -41 8 -53 10 -19 19 -21 78 -18 l67
3 3 53 3 52 279 0 279 0 -10 -32 c-14 -51 -11 -149 7 -202 l17 -48 -214 -214
-214 -214 -520 0 c-393 1 -524 4 -536 13 -37 28 -39 49 -39 392 l0 336 23 -13
c16 -10 118 -14 397 -18z m958 -637 c-134 -134 -250 -243 -260 -243 -21 0 -48
27 -48 48 0 9 109 125 242 259 l242 243 33 -32 33 -32 -242 -243z m336 192
l36 -15 0 -94 c0 -87 -2 -97 -26 -125 l-26 -31 -156 0 -157 0 140 140 c77 77
143 140 146 140 4 0 23 -7 43 -15z"/>
<path d="M2507 1283 c-12 -12 -7 -34 12 -59 34 -43 36 -98 7 -158 -29 -60 -31
-72 -13 -79 40 -14 87 64 87 148 0 89 -59 183 -93 148z"/>
<path d="M253 3 c9 -2 23 -2 30 0 6 3 -1 5 -18 5 -16 0 -22 -2 -12 -5z"/>
</g>
</svg>
